# xmcd CD database file
#
# Track frame offsets:
#	180
#	12776
#	23423
#	36767
#	48594
#	61189
#	73641
#	87238
#	101036
#	115484
#	124971
#	137326
#	158572
#	173239
#	187215
#	201726
#	218889
#	235735
#	253056
#
# Disc length: 3529 seconds
#
# Revision: 0
# Processed by: cddbd v1.5.1PL0 Copyright (c) Steve Scherf et al.
# Submitted via: CDex 1.51
#
DISCID=0f0dc713
DTITLE=Various Artist - Glory Train 57
DYEAR=2005
DGENRE=Country
TTITLE0=Storm Seymour/Speak To The Sky
TTITLE1=Helms/It All Depends
TTITLE2=Clint Miller and Tompall Glaser/Glory Train To Heaven
TTITLE3=Joel Curtis/Saved
TTITLE4=Theresa Haddock/You Made It
TTITLE5=Ray Owens/Yesterday and Today
TTITLE6=Southern Grace/I'm On My Way
TTITLE7=Hamiltons/Just Believe Upon His Word
TTITLE8=Cordells/Shoutin' On The Mountain
TTITLE9=Philip Grimes/I Can Almost Taste The Water
TTITLE10=Carol Decker/Dwelling Under His Shadow
TTITLE11=Jacob Reel/Just A Closer Walk With Thee
TTITLE12=Marcie O'Neill/You Are Everything
TTITLE13=Frank Shockley/That's How Love Survives
TTITLE14=Delbert Brown/Rags To Riches
TTITLE15=All In The Family Singers/A Vision Of Mamma's Cabin
TTITLE16=Donnie Davis/I Called On The Lord (Recitation)
TTITLE17=Twice Robin/Lois Jean
TTITLE18=Lynn Hartline/Walking Shoes
EXTD=YEAR: 2005
EXTT0=
EXTT1=
EXTT2=
EXTT3=
EXTT4=
EXTT5=
EXTT6=
EXTT7=
EXTT8=
EXTT9=
EXTT10=
EXTT11=
EXTT12=
EXTT13=
EXTT14=
EXTT15=
EXTT16=
EXTT17=
EXTT18=
PLAYORDER=
